<?xml version="1.0"?>
<svg width="217.408" height="217.408" xmlns="http://www.w3.org/2000/svg" xmlns:svg="http://www.w3.org/2000/svg">
 <g class="layer">
  <title>Layer 1</title>
  <path d="m194.078,22.682c-10.747,-8.193 -22.606,-12.348 -35.248,-12.348c-15.951,0 -33.181,6.808 -50.126,19.754c-16.945,-12.946 -34.175,-19.754 -50.126,-19.754c-12.642,0 -24.501,4.155 -35.248,12.348c-15.724,11.989 -23.57,27.118 -23.324,44.966c0.846,61.117 100.093,133.233 104.317,136.273l4.381,3.153l4.381,-3.153c4.225,-3.04 103.472,-75.156 104.317,-136.273c0.246,-17.848 -7.6,-32.977 -23.324,-44.966zm-40.245,126.335c-18.374,18.48 -36.915,33.188 -45.129,39.453c-8.214,-6.265 -26.755,-20.972 -45.129,-39.453c-31.479,-31.661 -48.274,-59.873 -48.57,-81.585c-0.178,-13.013 5.521,-23.749 17.421,-32.822c8.073,-6.156 16.872,-9.277 26.152,-9.277c17.563,0 34.338,10.936 45.317,20.11l4.809,4.018l4.809,-4.018c10.979,-9.174 27.754,-20.11 45.317,-20.11c9.28,0 18.079,3.121 26.152,9.277c11.9,9.073 17.599,19.809 17.421,32.822c-0.296,21.713 -17.092,49.924 -48.57,81.585z" fill="#ffffff" id="svg_1" stroke="#ffffff" stroke-width="2"/>
  <g id="svg_2"/>
  <g id="svg_3"/>
  <g id="svg_4"/>
  <g id="svg_5"/>
  <g id="svg_6"/>
  <g id="svg_7"/>
  <g id="svg_8"/>
  <g id="svg_9"/>
  <g id="svg_10"/>
  <g id="svg_11"/>
  <g id="svg_12"/>
  <g id="svg_13"/>
  <g id="svg_14"/>
  <g id="svg_15"/>
  <g id="svg_16"/>
 </g>
</svg>